<?xml version="1.0" encoding="UTF-8" standalone="no"?>
<!-- Created with Inkscape (http://www.inkscape.org/) -->

<svg
   xmlns:dc="http://purl.org/dc/elements/1.1/"
   xmlns:cc="http://creativecommons.org/ns#"
   xmlns:rdf="http://www.w3.org/1999/02/22-rdf-syntax-ns#"
   xmlns:svg="http://www.w3.org/2000/svg"
   xmlns="http://www.w3.org/2000/svg"
   xmlns:sodipodi="http://sodipodi.sourceforge.net/DTD/sodipodi-0.dtd"
   xmlns:inkscape="http://www.inkscape.org/namespaces/inkscape"
   width="455"
   height="330"
   id="svg2"
   version="1.1"
   inkscape:version="0.47pre4 r22446"
   sodipodi:docname="example3.svg">
  <defs
     id="defs4">
    <inkscape:perspective
       sodipodi:type="inkscape:persp3d"
       inkscape:vp_x="0 : 526.18109 : 1"
       inkscape:vp_y="0 : 1000 : 0"
       inkscape:vp_z="744.09448 : 526.18109 : 1"
       inkscape:persp3d-origin="372.04724 : 350.78739 : 1"
       id="perspective10" />
  </defs>
  <sodipodi:namedview
     id="base"
     pagecolor="#ffffff"
     bordercolor="#666666"
     borderopacity="1.0"
     inkscape:pageopacity="0.0"
     inkscape:pageshadow="2"
     inkscape:zoom="1"
     inkscape:cx="96"
     inkscape:cy="144"
     inkscape:document-units="px"
     inkscape:current-layer="layer1"
     showgrid="false"
     inkscape:window-width="1920"
     inkscape:window-height="1148"
     inkscape:window-x="1920"
     inkscape:window-y="25"
     inkscape:window-maximized="1" />
  <metadata
     id="metadata7">
    <rdf:RDF>
      <cc:Work
         rdf:about="">
        <dc:format>image/svg+xml</dc:format>
        <dc:type
           rdf:resource="http://purl.org/dc/dcmitype/StillImage" />
        <dc:title />
      </cc:Work>
    </rdf:RDF>
  </metadata>
  <g
     inkscape:label="Layer 1"
     inkscape:groupmode="layer"
     id="layer1"
     transform="translate(-47,-626.36218)">
    <path
       sodipodi:type="arc"
       style="fill:#729fcf;stroke:none"
       id="path2816"
       sodipodi:cx="142"
       sodipodi:cy="87"
       sodipodi:rx="5"
       sodipodi:ry="5"
       d="m 147,87 c 0,2.761424 -2.23858,5 -5,5 -2.76142,0 -5,-2.238576 -5,-5 0,-2.761424 2.23858,-5 5,-5 2.76142,0 5,2.238576 5,5 z"
       transform="translate(-69,554.36218)" />
    <path
       transform="translate(95,724.36218)"
       d="m 147,87 c 0,2.761424 -2.23858,5 -5,5 -2.76142,0 -5,-2.238576 -5,-5 0,-2.761424 2.23858,-5 5,-5 2.76142,0 5,2.238576 5,5 z"
       sodipodi:ry="5"
       sodipodi:rx="5"
       sodipodi:cy="87"
       sodipodi:cx="142"
       id="path3590"
       style="fill:#8ae234;stroke:none"
       sodipodi:type="arc" />
    <path
       sodipodi:type="arc"
       style="fill:#fcaf3e;stroke:none"
       id="path3592"
       sodipodi:cx="142"
       sodipodi:cy="87"
       sodipodi:rx="5"
       sodipodi:ry="5"
       d="m 147,87 c 0,2.761424 -2.23858,5 -5,5 -2.76142,0 -5,-2.238576 -5,-5 0,-2.761424 2.23858,-5 5,-5 2.76142,0 5,2.238576 5,5 z"
       transform="translate(-90,651.36218)" />
    <path
       transform="translate(12,825.36218)"
       d="m 147,87 c 0,2.761424 -2.23858,5 -5,5 -2.76142,0 -5,-2.238576 -5,-5 0,-2.761424 2.23858,-5 5,-5 2.76142,0 5,2.238576 5,5 z"
       sodipodi:ry="5"
       sodipodi:rx="5"
       sodipodi:cy="87"
       sodipodi:cx="142"
       id="path3594"
       style="fill:#8ae234;stroke:none"
       sodipodi:type="arc" />
    <path
       sodipodi:type="arc"
       style="fill:#729fcf;stroke:none"
       id="path3596"
       sodipodi:cx="142"
       sodipodi:cy="87"
       sodipodi:rx="5"
       sodipodi:ry="5"
       d="m 147,87 c 0,2.761424 -2.23858,5 -5,5 -2.76142,0 -5,-2.238576 -5,-5 0,-2.761424 2.23858,-5 5,-5 2.76142,0 5,2.238576 5,5 z"
       transform="translate(58,545.36218)" />
    <path
       transform="translate(259,581.36218)"
       d="m 147,87 c 0,2.761424 -2.23858,5 -5,5 -2.76142,0 -5,-2.238576 -5,-5 0,-2.761424 2.23858,-5 5,-5 2.76142,0 5,2.238576 5,5 z"
       sodipodi:ry="5"
       sodipodi:rx="5"
       sodipodi:cy="87"
       sodipodi:cx="142"
       id="path3598"
       style="fill:#729fcf;stroke:none"
       sodipodi:type="arc" />
    <path
       sodipodi:type="arc"
       style="fill:#729fcf;stroke:none"
       id="path3600"
       sodipodi:cx="142"
       sodipodi:cy="87"
       sodipodi:rx="5"
       sodipodi:ry="5"
       d="m 147,87 c 0,2.761424 -2.23858,5 -5,5 -2.76142,0 -5,-2.238576 -5,-5 0,-2.761424 2.23858,-5 5,-5 2.76142,0 5,2.238576 5,5 z"
       transform="translate(70,634.36218)" />
    <path
       transform="translate(236,762.36218)"
       d="m 147,87 c 0,2.761424 -2.23858,5 -5,5 -2.76142,0 -5,-2.238576 -5,-5 0,-2.761424 2.23858,-5 5,-5 2.76142,0 5,2.238576 5,5 z"
       sodipodi:ry="5"
       sodipodi:rx="5"
       sodipodi:cy="87"
       sodipodi:cx="142"
       id="path3602"
       style="fill:#8ae234;stroke:none"
       sodipodi:type="arc" />
    <path
       sodipodi:type="arc"
       style="fill:#fcaf3e;stroke:none"
       id="path3604"
       sodipodi:cx="142"
       sodipodi:cy="87"
       sodipodi:rx="5"
       sodipodi:ry="5"
       d="m 147,87 c 0,2.761424 -2.23858,5 -5,5 -2.76142,0 -5,-2.238576 -5,-5 0,-2.761424 2.23858,-5 5,-5 2.76142,0 5,2.238576 5,5 z"
       transform="translate(353,741.36218)" />
    <path
       transform="translate(244,682.36218)"
       d="m 147,87 c 0,2.761424 -2.23858,5 -5,5 -2.76142,0 -5,-2.238576 -5,-5 0,-2.761424 2.23858,-5 5,-5 2.76142,0 5,2.238576 5,5 z"
       sodipodi:ry="5"
       sodipodi:rx="5"
       sodipodi:cy="87"
       sodipodi:cx="142"
       id="path3606"
       style="fill:#729fcf;stroke:none"
       sodipodi:type="arc" />
    <path
       sodipodi:type="arc"
       style="fill:#729fcf;stroke:none"
       id="path3608"
       sodipodi:cx="142"
       sodipodi:cy="87"
       sodipodi:rx="5"
       sodipodi:ry="5"
       d="m 147,87 c 0,2.761424 -2.23858,5 -5,5 -2.76142,0 -5,-2.238576 -5,-5 0,-2.761424 2.23858,-5 5,-5 2.76142,0 5,2.238576 5,5 z"
       transform="translate(143,676.36218)" />
    <path
       transform="translate(161,725.36218)"
       d="m 147,87 c 0,2.761424 -2.23858,5 -5,5 -2.76142,0 -5,-2.238576 -5,-5 0,-2.761424 2.23858,-5 5,-5 2.76142,0 5,2.238576 5,5 z"
       sodipodi:ry="5"
       sodipodi:rx="5"
       sodipodi:cy="87"
       sodipodi:cx="142"
       id="path3610"
       style="fill:#8ae234;stroke:none"
       sodipodi:type="arc" />
    <path
       sodipodi:type="arc"
       style="fill:#8ae234;stroke:none"
       id="path3612"
       sodipodi:cx="142"
       sodipodi:cy="87"
       sodipodi:rx="5"
       sodipodi:ry="5"
       d="m 147,87 c 0,2.761424 -2.23858,5 -5,5 -2.76142,0 -5,-2.238576 -5,-5 0,-2.761424 2.23858,-5 5,-5 2.76142,0 5,2.238576 5,5 z"
       transform="translate(148,864.36218)" />
    <path
       transform="translate(197,683.36218)"
       d="m 147,87 c 0,2.761424 -2.23858,5 -5,5 -2.76142,0 -5,-2.238576 -5,-5 0,-2.761424 2.23858,-5 5,-5 2.76142,0 5,2.238576 5,5 z"
       sodipodi:ry="5"
       sodipodi:rx="5"
       sodipodi:cy="87"
       sodipodi:cx="142"
       id="path3614"
       style="fill:#729fcf;stroke:none"
       sodipodi:type="arc" />
    <path
       sodipodi:type="arc"
       style="fill:#729fcf;stroke:none"
       id="path3616"
       sodipodi:cx="142"
       sodipodi:cy="87"
       sodipodi:rx="5"
       sodipodi:ry="5"
       d="m 147,87 c 0,2.761424 -2.23858,5 -5,5 -2.76142,0 -5,-2.238576 -5,-5 0,-2.761424 2.23858,-5 5,-5 2.76142,0 5,2.238576 5,5 z"
       transform="translate(191,624.36218)" />
    <path
       transform="translate(26,668.36218)"
       d="m 147,87 c 0,2.761424 -2.23858,5 -5,5 -2.76142,0 -5,-2.238576 -5,-5 0,-2.761424 2.23858,-5 5,-5 2.76142,0 5,2.238576 5,5 z"
       sodipodi:ry="5"
       sodipodi:rx="5"
       sodipodi:cy="87"
       sodipodi:cx="142"
       id="path3618"
       style="fill:#729fcf;stroke:none"
       sodipodi:type="arc" />
    <path
       style="fill:none;stroke:#fcaf3e;stroke-width:2;stroke-linecap:butt;stroke-linejoin:miter;stroke-miterlimit:4;stroke-opacity:1;stroke-dasharray:none"
       d="m 52,166 443,90"
       id="path3662"
       transform="translate(0,572.36218)" />
  </g>
</svg>
